# MagicaVoxel @ Ephtracy

# group
o playerhead

# material
mtllib head-0-playerhead.mtl
usemtl palette

# normals
vn -1 0 0
vn 1 0 0
vn 0 0 1
vn 0 0 -1
vn 0 -1 0
vn 0 1 0

# texcoords
vt 0.173828 0.5
vt 0.291016 0.5
vt 0.353516 0.5
vt 0.458984 0.5

# verts
v -1.9 0 1.7
v -1.9 0 -2
v -1.9 3.1 -1.1
v -1.9 3.1 -1.3
v -1.9 3.3 -1.1
v -1.9 3.3 -1.3
v -1.9 3.7 1.7
v -1.9 3.7 -2
v -1.6 3.1 -1.1
v -1.6 3.1 -1.3
v -1.6 3.3 -1.1
v -1.6 3.3 -1.3
v -1.3 2.4 2
v -1.3 2.4 1.7
v -1.3 3.1 2
v -1.3 3.1 1.7
v -0.7 2.5 1.9
v -0.7 2.5 1.7
v -0.7 2.5 1.6
v -0.7 3 1.9
v -0.7 3 1.7
v -0.7 3 1.6
v -0.6 0.6 2
v -0.6 0.6 1.7
v -0.6 0.7 1.9
v -0.6 0.7 1.7
v -0.6 0.9 1.9
v -0.6 0.9 1.7
v -0.6 1 2
v -0.6 1 1.7
v -0.4 1.5 2
v -0.4 1.5 1.7
v -0.4 2.2 2
v -0.4 2.2 1.7
v 0.2 1.6 1.9
v 0.2 1.6 1.7
v 0.2 1.6 1.6
v 0.2 2.1 1.9
v 0.2 2.1 1.7
v 0.2 2.1 1.6
v 0.5 0.7 1.7
v 0.5 0.7 1.6
v 0.5 0.9 1.7
v 0.5 0.9 1.6
v 0.5 2.4 2
v 0.5 2.4 1.7
v 0.5 3.1 2
v 0.5 3.1 1.7
v 1.1 2.5 1.9
v 1.1 2.5 1.7
v 1.1 2.5 1.6
v 1.1 3 1.9
v 1.1 3 1.7
v 1.1 3 1.6
v 1.7 0.1 1.6
v 1.7 0.1 -1.9
v 1.7 3.6 1.6
v 1.7 3.6 -1.9
v -1.8 0.1 1.6
v -1.8 0.1 -1.9
v -1.8 3 -1
v -1.8 3 -1.4
v -1.8 3.4 -1
v -1.8 3.4 -1.4
v -1.8 3.6 1.6
v -1.8 3.6 -1.9
v -1.5 3 -1
v -1.5 3 -1.4
v -1.5 3.4 -1
v -1.5 3.4 -1.4
v -1.2 2.5 1.9
v -1.2 2.5 1.7
v -1.2 2.5 1.6
v -1.2 3 1.9
v -1.2 3 1.7
v -1.2 3 1.6
v -0.6 0.7 1.7
v -0.6 0.7 1.6
v -0.6 0.9 1.7
v -0.6 0.9 1.6
v -0.6 2.4 2
v -0.6 2.4 1.7
v -0.6 3.1 2
v -0.6 3.1 1.7
v -0.3 1.6 1.9
v -0.3 1.6 1.7
v -0.3 1.6 1.6
v -0.3 2.1 1.9
v -0.3 2.1 1.7
v -0.3 2.1 1.6
v 0.3 1.5 2
v 0.3 1.5 1.7
v 0.3 2.2 2
v 0.3 2.2 1.7
v 0.5 0.6 2
v 0.5 0.6 1.7
v 0.5 0.7 1.9
v 0.5 0.7 1.7
v 0.5 0.9 1.9
v 0.5 0.9 1.7
v 0.5 1 2
v 0.5 1 1.7
v 0.6 2.5 1.9
v 0.6 2.5 1.7
v 0.6 2.5 1.6
v 0.6 3 1.9
v 0.6 3 1.7
v 0.6 3 1.6
v 1.2 2.4 2
v 1.2 2.4 1.7
v 1.2 3.1 2
v 1.2 3.1 1.7
v 1.8 0 1.7
v 1.8 0 -2
v 1.8 3.7 1.7
v 1.8 3.7 -2
v -1.3 2.4 2
v -1.3 3.1 2
v -0.6 0.6 2
v -0.6 1 2
v -0.6 2.4 2
v -0.6 3.1 2
v -0.4 1.5 2
v -0.4 2.2 2
v 0.3 1.5 2
v 0.3 2.2 2
v 0.5 0.6 2
v 0.5 1 2
v 0.5 2.4 2
v 0.5 3.1 2
v 1.2 2.4 2
v 1.2 3.1 2
v -1.9 0 1.7
v -1.9 3.7 1.7
v -1.3 2.4 1.7
v -1.3 3.1 1.7
v -0.6 0.6 1.7
v -0.6 0.7 1.7
v -0.6 0.9 1.7
v -0.6 1 1.7
v -0.6 2.4 1.7
v -0.6 3.1 1.7
v -0.4 1.5 1.7
v -0.4 2.2 1.7
v 0.3 1.5 1.7
v 0.3 2.2 1.7
v 0.5 0.6 1.7
v 0.5 0.7 1.7
v 0.5 0.9 1.7
v 0.5 1 1.7
v 0.5 2.4 1.7
v 0.5 3.1 1.7
v 1.2 2.4 1.7
v 1.2 3.1 1.7
v 1.8 0 1.7
v 1.8 3.7 1.7
v -1.8 3 -1
v -1.8 3.4 -1
v -1.5 3 -1
v -1.5 3.4 -1
v -1.9 3.1 -1.3
v -1.9 3.3 -1.3
v -1.6 3.1 -1.3
v -1.6 3.3 -1.3
v -1.8 0.1 -1.9
v -1.8 3.6 -1.9
v 1.7 0.1 -1.9
v 1.7 3.6 -1.9
v -1.2 2.5 1.9
v -1.2 3 1.9
v -0.7 2.5 1.9
v -0.7 3 1.9
v -0.6 0.7 1.9
v -0.6 0.9 1.9
v -0.3 1.6 1.9
v -0.3 2.1 1.9
v 0.2 1.6 1.9
v 0.2 2.1 1.9
v 0.5 0.7 1.9
v 0.5 0.9 1.9
v 0.6 2.5 1.9
v 0.6 3 1.9
v 1.1 2.5 1.9
v 1.1 3 1.9
v -1.8 0.1 1.6
v -1.8 3.6 1.6
v -1.2 2.5 1.6
v -1.2 3 1.6
v -0.7 2.5 1.6
v -0.7 3 1.6
v -0.6 0.7 1.6
v -0.6 0.9 1.6
v -0.3 1.6 1.6
v -0.3 2.1 1.6
v 0.2 1.6 1.6
v 0.2 2.1 1.6
v 0.5 0.7 1.6
v 0.5 0.9 1.6
v 0.6 2.5 1.6
v 0.6 3 1.6
v 1.1 2.5 1.6
v 1.1 3 1.6
v 1.7 0.1 1.6
v 1.7 3.6 1.6
v -1.9 3.1 -1.1
v -1.9 3.3 -1.1
v -1.6 3.1 -1.1
v -1.6 3.3 -1.1
v -1.8 3 -1.4
v -1.8 3.4 -1.4
v -1.5 3 -1.4
v -1.5 3.4 -1.4
v -1.9 0 -2
v -1.9 3.7 -2
v 1.8 0 -2
v 1.8 3.7 -2
v -1.9 0 1.7
v 1.8 0 1.7
v -1.9 0 -2
v 1.8 0 -2
v -0.6 0.6 2
v 0.5 0.6 2
v -0.6 0.6 1.7
v 0.5 0.6 1.7
v -0.6 0.9 1.9
v 0.5 0.9 1.9
v -0.6 0.9 1.7
v 0.5 0.9 1.7
v -0.6 0.9 1.6
v 0.5 0.9 1.6
v -0.4 1.5 2
v 0.3 1.5 2
v -0.4 1.5 1.7
v 0.3 1.5 1.7
v -0.3 2.1 1.9
v 0.2 2.1 1.9
v -0.3 2.1 1.7
v 0.2 2.1 1.7
v -0.3 2.1 1.6
v 0.2 2.1 1.6
v -1.3 2.4 2
v -0.6 2.4 2
v 0.5 2.4 2
v 1.2 2.4 2
v -1.3 2.4 1.7
v -0.6 2.4 1.7
v 0.5 2.4 1.7
v 1.2 2.4 1.7
v -1.2 3 1.9
v -0.7 3 1.9
v 0.6 3 1.9
v 1.1 3 1.9
v -1.2 3 1.7
v -0.7 3 1.7
v 0.6 3 1.7
v 1.1 3 1.7
v -1.2 3 1.6
v -0.7 3 1.6
v 0.6 3 1.6
v 1.1 3 1.6
v -1.8 3 -1
v -1.5 3 -1
v -1.8 3 -1.4
v -1.5 3 -1.4
v -1.9 3.3 -1.1
v -1.6 3.3 -1.1
v -1.9 3.3 -1.3
v -1.6 3.3 -1.3
v -1.8 3.6 1.6
v 1.7 3.6 1.6
v -1.8 3.6 -1.9
v 1.7 3.6 -1.9
v -1.8 0.1 1.6
v 1.7 0.1 1.6
v -1.8 0.1 -1.9
v 1.7 0.1 -1.9
v -0.6 0.7 1.9
v 0.5 0.7 1.9
v -0.6 0.7 1.7
v 0.5 0.7 1.7
v -0.6 0.7 1.6
v 0.5 0.7 1.6
v -0.6 1 2
v 0.5 1 2
v -0.6 1 1.7
v 0.5 1 1.7
v -0.3 1.6 1.9
v 0.2 1.6 1.9
v -0.3 1.6 1.7
v 0.2 1.6 1.7
v -0.3 1.6 1.6
v 0.2 1.6 1.6
v -0.4 2.2 2
v 0.3 2.2 2
v -0.4 2.2 1.7
v 0.3 2.2 1.7
v -1.2 2.5 1.9
v -0.7 2.5 1.9
v 0.6 2.5 1.9
v 1.1 2.5 1.9
v -1.2 2.5 1.7
v -0.7 2.5 1.7
v 0.6 2.5 1.7
v 1.1 2.5 1.7
v -1.2 2.5 1.6
v -0.7 2.5 1.6
v 0.6 2.5 1.6
v 1.1 2.5 1.6
v -1.3 3.1 2
v -0.6 3.1 2
v 0.5 3.1 2
v 1.2 3.1 2
v -1.3 3.1 1.7
v -0.6 3.1 1.7
v 0.5 3.1 1.7
v 1.2 3.1 1.7
v -1.9 3.1 -1.1
v -1.6 3.1 -1.1
v -1.9 3.1 -1.3
v -1.6 3.1 -1.3
v -1.8 3.4 -1
v -1.5 3.4 -1
v -1.8 3.4 -1.4
v -1.5 3.4 -1.4
v -1.9 3.7 1.7
v 1.8 3.7 1.7
v -1.9 3.7 -2
v 1.8 3.7 -2

# faces
f 3/4/1 2/4/1 1/4/1
f 4/4/1 2/4/1 3/4/1
f 5/4/1 3/4/1 1/4/1
f 6/4/1 2/4/1 4/4/1
f 7/4/1 5/4/1 1/4/1
f 7/4/1 6/4/1 5/4/1
f 8/4/1 2/4/1 6/4/1
f 8/4/1 6/4/1 7/4/1
f 11/4/1 10/4/1 9/4/1
f 12/4/1 10/4/1 11/4/1
f 15/3/1 14/3/1 13/3/1
f 16/3/1 14/3/1 15/3/1
f 20/3/1 18/3/1 17/3/1
f 21/4/1 19/4/1 18/4/1
f 21/3/1 18/3/1 20/3/1
f 22/4/1 19/4/1 21/4/1
f 25/1/1 24/1/1 23/1/1
f 26/1/1 24/1/1 25/1/1
f 27/1/1 25/1/1 23/1/1
f 29/1/1 27/1/1 23/1/1
f 29/1/1 28/1/1 27/1/1
f 30/1/1 28/1/1 29/1/1
f 33/2/1 32/2/1 31/2/1
f 34/2/1 32/2/1 33/2/1
f 38/2/1 36/2/1 35/2/1
f 39/4/1 37/4/1 36/4/1
f 39/2/1 36/2/1 38/2/1
f 40/4/1 37/4/1 39/4/1
f 43/4/1 42/4/1 41/4/1
f 44/4/1 42/4/1 43/4/1
f 47/3/1 46/3/1 45/3/1
f 48/3/1 46/3/1 47/3/1
f 52/3/1 50/3/1 49/3/1
f 53/4/1 51/4/1 50/4/1
f 53/3/1 50/3/1 52/3/1
f 54/4/1 51/4/1 53/4/1
f 57/4/1 56/4/1 55/4/1
f 58/4/1 56/4/1 57/4/1
f 59/4/2 60/4/2 61/4/2
f 61/4/2 60/4/2 62/4/2
f 59/4/2 61/4/2 63/4/2
f 62/4/2 60/4/2 64/4/2
f 59/4/2 63/4/2 65/4/2
f 63/4/2 64/4/2 65/4/2
f 64/4/2 60/4/2 66/4/2
f 65/4/2 64/4/2 66/4/2
f 67/4/2 68/4/2 69/4/2
f 69/4/2 68/4/2 70/4/2
f 71/3/2 72/3/2 74/3/2
f 72/4/2 73/4/2 75/4/2
f 74/3/2 72/3/2 75/3/2
f 75/4/2 73/4/2 76/4/2
f 77/4/2 78/4/2 79/4/2
f 79/4/2 78/4/2 80/4/2
f 81/3/2 82/3/2 83/3/2
f 83/3/2 82/3/2 84/3/2
f 85/2/2 86/2/2 88/2/2
f 86/4/2 87/4/2 89/4/2
f 88/2/2 86/2/2 89/2/2
f 89/4/2 87/4/2 90/4/2
f 91/2/2 92/2/2 93/2/2
f 93/2/2 92/2/2 94/2/2
f 95/1/2 96/1/2 97/1/2
f 97/1/2 96/1/2 98/1/2
f 95/1/2 97/1/2 99/1/2
f 95/1/2 99/1/2 101/1/2
f 99/1/2 100/1/2 101/1/2
f 101/1/2 100/1/2 102/1/2
f 103/3/2 104/3/2 106/3/2
f 104/4/2 105/4/2 107/4/2
f 106/3/2 104/3/2 107/3/2
f 107/4/2 105/4/2 108/4/2
f 109/3/2 110/3/2 111/3/2
f 111/3/2 110/3/2 112/3/2
f 113/4/2 114/4/2 115/4/2
f 115/4/2 114/4/2 116/4/2
f 121/3/3 118/3/3 117/3/3
f 122/3/3 118/3/3 121/3/3
f 125/2/3 124/2/3 123/2/3
f 126/2/3 124/2/3 125/2/3
f 127/1/3 120/1/3 119/1/3
f 128/1/3 120/1/3 127/1/3
f 131/3/3 130/3/3 129/3/3
f 132/3/3 130/3/3 131/3/3
f 135/4/3 134/4/3 133/4/3
f 136/4/3 134/4/3 135/4/3
f 137/4/3 135/4/3 133/4/3
f 138/4/3 135/4/3 137/4/3
f 139/4/3 135/4/3 138/4/3
f 140/4/3 135/4/3 139/4/3
f 141/4/3 135/4/3 140/4/3
f 142/4/3 134/4/3 136/4/3
f 143/4/3 141/4/3 140/4/3
f 143/4/3 142/4/3 141/4/3
f 144/4/3 142/4/3 143/4/3
f 145/4/3 143/4/3 140/4/3
f 146/4/3 142/4/3 144/4/3
f 147/4/3 137/4/3 133/4/3
f 150/4/3 146/4/3 145/4/3
f 150/4/3 145/4/3 140/4/3
f 151/4/3 142/4/3 146/4/3
f 151/4/3 146/4/3 150/4/3
f 152/4/3 134/4/3 142/4/3
f 152/4/3 142/4/3 151/4/3
f 153/4/3 151/4/3 150/4/3
f 153/4/3 149/4/3 148/4/3
f 153/4/3 148/4/3 147/4/3
f 153/4/3 150/4/3 149/4/3
f 154/4/3 134/4/3 152/4/3
f 155/4/3 153/4/3 147/4/3
f 155/4/3 154/4/3 153/4/3
f 155/4/3 147/4/3 133/4/3
f 156/4/3 134/4/3 154/4/3
f 156/4/3 154/4/3 155/4/3
f 159/4/3 158/4/3 157/4/3
f 160/4/3 158/4/3 159/4/3
f 163/4/3 162/4/3 161/4/3
f 164/4/3 162/4/3 163/4/3
f 167/4/3 166/4/3 165/4/3
f 168/4/3 166/4/3 167/4/3
f 169/3/4 170/3/4 171/3/4
f 171/3/4 170/3/4 172/3/4
f 175/2/4 176/2/4 177/2/4
f 177/2/4 176/2/4 178/2/4
f 173/1/4 174/1/4 179/1/4
f 179/1/4 174/1/4 180/1/4
f 181/3/4 182/3/4 183/3/4
f 183/3/4 182/3/4 184/3/4
f 185/4/4 186/4/4 187/4/4
f 187/4/4 186/4/4 188/4/4
f 185/4/4 187/4/4 189/4/4
f 188/4/4 186/4/4 190/4/4
f 185/4/4 189/4/4 191/4/4
f 189/4/4 190/4/4 191/4/4
f 191/4/4 190/4/4 192/4/4
f 192/4/4 190/4/4 193/4/4
f 193/4/4 190/4/4 194/4/4
f 192/4/4 193/4/4 195/4/4
f 194/4/4 190/4/4 196/4/4
f 185/4/4 191/4/4 197/4/4
f 195/4/4 196/4/4 198/4/4
f 192/4/4 195/4/4 198/4/4
f 196/4/4 190/4/4 199/4/4
f 197/4/4 198/4/4 199/4/4
f 198/4/4 196/4/4 199/4/4
f 190/4/4 186/4/4 200/4/4
f 199/4/4 190/4/4 200/4/4
f 197/4/4 199/4/4 201/4/4
f 200/4/4 186/4/4 202/4/4
f 197/4/4 201/4/4 203/4/4
f 201/4/4 202/4/4 203/4/4
f 185/4/4 197/4/4 203/4/4
f 202/4/4 186/4/4 204/4/4
f 203/4/4 202/4/4 204/4/4
f 205/4/4 206/4/4 207/4/4
f 207/4/4 206/4/4 208/4/4
f 209/4/4 210/4/4 211/4/4
f 211/4/4 210/4/4 212/4/4
f 213/4/4 214/4/4 215/4/4
f 215/4/4 214/4/4 216/4/4
f 219/4/5 218/4/5 217/4/5
f 220/4/5 218/4/5 219/4/5
f 223/1/5 222/1/5 221/1/5
f 224/1/5 222/1/5 223/1/5
f 227/1/5 226/1/5 225/1/5
f 228/1/5 226/1/5 227/1/5
f 229/4/5 228/4/5 227/4/5
f 230/4/5 228/4/5 229/4/5
f 233/2/5 232/2/5 231/2/5
f 234/2/5 232/2/5 233/2/5
f 237/2/5 236/2/5 235/2/5
f 238/2/5 236/2/5 237/2/5
f 239/4/5 238/4/5 237/4/5
f 240/4/5 238/4/5 239/4/5
f 245/3/5 242/3/5 241/3/5
f 246/3/5 242/3/5 245/3/5
f 247/3/5 244/3/5 243/3/5
f 248/3/5 244/3/5 247/3/5
f 253/3/5 250/3/5 249/3/5
f 254/3/5 250/3/5 253/3/5
f 255/3/5 252/3/5 251/3/5
f 256/3/5 252/3/5 255/3/5
f 257/4/5 254/4/5 253/4/5
f 258/4/5 254/4/5 257/4/5
f 259/4/5 256/4/5 255/4/5
f 260/4/5 256/4/5 259/4/5
f 263/4/5 262/4/5 261/4/5
f 264/4/5 262/4/5 263/4/5
f 267/4/5 266/4/5 265/4/5
f 268/4/5 266/4/5 267/4/5
f 271/4/5 270/4/5 269/4/5
f 272/4/5 270/4/5 271/4/5
f 273/4/6 274/4/6 275/4/6
f 275/4/6 274/4/6 276/4/6
f 277/1/6 278/1/6 279/1/6
f 279/1/6 278/1/6 280/1/6
f 279/4/6 280/4/6 281/4/6
f 281/4/6 280/4/6 282/4/6
f 283/1/6 284/1/6 285/1/6
f 285/1/6 284/1/6 286/1/6
f 287/2/6 288/2/6 289/2/6
f 289/2/6 288/2/6 290/2/6
f 289/4/6 290/4/6 291/4/6
f 291/4/6 290/4/6 292/4/6
f 293/2/6 294/2/6 295/2/6
f 295/2/6 294/2/6 296/2/6
f 297/3/6 298/3/6 301/3/6
f 301/3/6 298/3/6 302/3/6
f 299/3/6 300/3/6 303/3/6
f 303/3/6 300/3/6 304/3/6
f 301/4/6 302/4/6 305/4/6
f 305/4/6 302/4/6 306/4/6
f 303/4/6 304/4/6 307/4/6
f 307/4/6 304/4/6 308/4/6
f 309/3/6 310/3/6 313/3/6
f 313/3/6 310/3/6 314/3/6
f 311/3/6 312/3/6 315/3/6
f 315/3/6 312/3/6 316/3/6
f 317/4/6 318/4/6 319/4/6
f 319/4/6 318/4/6 320/4/6
f 321/4/6 322/4/6 323/4/6
f 323/4/6 322/4/6 324/4/6
f 325/4/6 326/4/6 327/4/6
f 327/4/6 326/4/6 328/4/6
