# MagicaVoxel @ Ephtracy

# group
o playerlowleg

# material
mtllib lowleg-0-playerlowleg.mtl
usemtl palette

# normals
vn -1 0 0
vn 1 0 0
vn 0 0 1
vn 0 0 -1
vn 0 -1 0
vn 0 1 0

# texcoords
vt 0.419922 0.5
vt 0.439453 0.5
vt 0.482422 0.5

# verts
v -0.7 0 1.4
v -0.7 0 -1.3
v -0.7 1.4 1.4
v -0.7 1.4 0.1
v -0.7 1.4 -1.3
v -0.7 2.7 0.1
v -0.7 2.7 -1.3
v -0.7 4 0.1
v -0.7 4 -1.3
v 0.6 0.1 1.3
v 0.6 0.1 0.1
v 0.6 0.1 -1.2
v 0.6 1.3 1.3
v 0.6 1.3 0.1
v 0.6 1.3 0
v 0.6 1.4 0
v 0.6 1.4 -1.2
v 0.6 2.7 0
v 0.6 2.7 -1.2
v 0.6 3.9 0
v 0.6 3.9 -1.2
v -0.6 0.1 1.3
v -0.6 0.1 0.1
v -0.6 0.1 -1.2
v -0.6 1.3 1.3
v -0.6 1.3 0.1
v -0.6 1.3 0
v -0.6 1.4 0
v -0.6 1.4 -1.2
v -0.6 2.7 0
v -0.6 2.7 -1.2
v -0.6 3.9 0
v -0.6 3.9 -1.2
v 0.7 0 1.4
v 0.7 0 -1.3
v 0.7 1.4 1.4
v 0.7 1.4 0.1
v 0.7 1.4 -1.3
v 0.7 2.7 0.1
v 0.7 2.7 -1.3
v 0.7 4 0.1
v 0.7 4 -1.3
v -0.7 0 1.4
v -0.7 1.4 1.4
v 0.7 0 1.4
v 0.7 1.4 1.4
v -0.7 1.4 0.1
v -0.7 2.7 0.1
v -0.7 4 0.1
v 0.7 1.4 0.1
v 0.7 2.7 0.1
v 0.7 4 0.1
v -0.6 0.1 -1.2
v -0.6 1.4 -1.2
v -0.6 2.7 -1.2
v -0.6 3.9 -1.2
v 0.6 0.1 -1.2
v 0.6 1.4 -1.2
v 0.6 2.7 -1.2
v 0.6 3.9 -1.2
v -0.6 0.1 1.3
v -0.6 1.3 1.3
v 0.6 0.1 1.3
v 0.6 1.3 1.3
v -0.6 1.3 0
v -0.6 1.4 0
v -0.6 2.7 0
v -0.6 3.9 0
v 0.6 1.3 0
v 0.6 1.4 0
v 0.6 2.7 0
v 0.6 3.9 0
v -0.7 0 -1.3
v -0.7 1.4 -1.3
v -0.7 2.7 -1.3
v -0.7 4 -1.3
v 0.7 0 -1.3
v 0.7 1.4 -1.3
v 0.7 2.7 -1.3
v 0.7 4 -1.3
v -0.7 0 1.4
v 0.7 0 1.4
v -0.6 0 0.1
v 0.6 0 0.1
v -0.6 0 -1.2
v 0.6 0 -1.2
v -0.7 0 -1.3
v 0.7 0 -1.3
v -0.6 1.3 1.3
v 0.6 1.3 1.3
v -0.6 1.3 0.1
v 0.6 1.3 0.1
v -0.6 1.3 0
v 0.6 1.3 0
v -0.6 3.9 0
v 0.6 3.9 0
v -0.6 3.9 -1.2
v 0.6 3.9 -1.2
v -0.6 0.1 1.3
v 0.6 0.1 1.3
v -0.6 0.1 0.1
v 0.6 0.1 0.1
v -0.6 0.1 -1.2
v 0.6 0.1 -1.2
v -0.7 1.4 1.4
v 0.7 1.4 1.4
v -0.7 1.4 0.1
v 0.7 1.4 0.1
v -0.7 4 0.1
v 0.7 4 0.1
v -0.7 4 -1.3
v 0.7 4 -1.3

# faces
f 3/2/1 2/2/1 1/2/1
f 4/2/1 2/2/1 3/2/1
f 5/2/1 2/2/1 4/2/1
f 6/1/1 5/1/1 4/1/1
f 7/1/1 5/1/1 6/1/1
f 8/3/1 7/3/1 6/3/1
f 9/3/1 7/3/1 8/3/1
f 13/2/1 11/2/1 10/2/1
f 13/2/1 12/2/1 11/2/1
f 14/2/1 12/2/1 13/2/1
f 15/2/1 12/2/1 14/2/1
f 16/2/1 12/2/1 15/2/1
f 17/2/1 12/2/1 16/2/1
f 18/1/1 17/1/1 16/1/1
f 19/1/1 17/1/1 18/1/1
f 20/3/1 19/3/1 18/3/1
f 21/3/1 19/3/1 20/3/1
f 22/2/2 23/2/2 25/2/2
f 23/2/2 24/2/2 25/2/2
f 25/2/2 24/2/2 26/2/2
f 26/2/2 24/2/2 27/2/2
f 27/2/2 24/2/2 28/2/2
f 28/2/2 24/2/2 29/2/2
f 28/1/2 29/1/2 30/1/2
f 30/1/2 29/1/2 31/1/2
f 30/3/2 31/3/2 32/3/2
f 32/3/2 31/3/2 33/3/2
f 34/2/2 35/2/2 36/2/2
f 36/2/2 35/2/2 37/2/2
f 37/2/2 35/2/2 38/2/2
f 37/1/2 38/1/2 39/1/2
f 39/1/2 38/1/2 40/1/2
f 39/3/2 40/3/2 41/3/2
f 41/3/2 40/3/2 42/3/2
f 45/2/3 44/2/3 43/2/3
f 46/2/3 44/2/3 45/2/3
f 50/1/3 48/1/3 47/1/3
f 51/3/3 49/3/3 48/3/3
f 51/1/3 48/1/3 50/1/3
f 52/3/3 49/3/3 51/3/3
f 57/2/3 54/2/3 53/2/3
f 58/1/3 55/1/3 54/1/3
f 58/2/3 54/2/3 57/2/3
f 59/3/3 56/3/3 55/3/3
f 59/1/3 55/1/3 58/1/3
f 60/3/3 56/3/3 59/3/3
f 61/2/4 62/2/4 63/2/4
f 63/2/4 62/2/4 64/2/4
f 65/1/4 66/1/4 69/1/4
f 66/1/4 67/1/4 69/1/4
f 69/1/4 67/1/4 70/1/4
f 67/3/4 68/3/4 71/3/4
f 70/1/4 67/1/4 71/1/4
f 71/3/4 68/3/4 72/3/4
f 73/2/4 74/2/4 77/2/4
f 74/1/4 75/1/4 78/1/4
f 77/2/4 74/2/4 78/2/4
f 75/3/4 76/3/4 79/3/4
f 78/1/4 75/1/4 79/1/4
f 79/3/4 76/3/4 80/3/4
f 83/2/5 82/2/5 81/2/5
f 84/2/5 82/2/5 83/2/5
f 85/2/5 83/2/5 81/2/5
f 85/1/5 84/1/5 83/1/5
f 86/2/5 82/2/5 84/2/5
f 86/1/5 84/1/5 85/1/5
f 87/2/5 85/2/5 81/2/5
f 87/2/5 86/2/5 85/2/5
f 88/2/5 82/2/5 86/2/5
f 88/2/5 86/2/5 87/2/5
f 91/2/5 90/2/5 89/2/5
f 92/2/5 90/2/5 91/2/5
f 93/1/5 92/1/5 91/1/5
f 94/1/5 92/1/5 93/1/5
f 97/3/5 96/3/5 95/3/5
f 98/3/5 96/3/5 97/3/5
f 99/2/6 100/2/6 101/2/6
f 101/2/6 100/2/6 102/2/6
f 101/1/6 102/1/6 103/1/6
f 103/1/6 102/1/6 104/1/6
f 105/2/6 106/2/6 107/2/6
f 107/2/6 106/2/6 108/2/6
f 109/3/6 110/3/6 111/3/6
f 111/3/6 110/3/6 112/3/6
