# MagicaVoxel @ Ephtracy

# group
o playeruparm

# material
mtllib uparm-0-playeruparm.mtl
usemtl palette

# normals
vn -1 0 0
vn 1 0 0
vn 0 0 1
vn 0 0 -1
vn 0 -1 0
vn 0 1 0

# texcoords
vt 0.326172 0.5
vt 0.412109 0.5
vt 0.416016 0.5

# verts
v -2 0 2
v -2 0 -2
v -2 2.2 2
v -2 2.2 -2
v -2 4 2
v -2 4 -2
v 1.9 0.1 1.9
v 1.9 0.1 -1.9
v 1.9 2.2 1.9
v 1.9 2.2 -1.9
v 1.9 3.9 1.9
v 1.9 3.9 -1.9
v -1.9 0.1 1.9
v -1.9 0.1 -1.9
v -1.9 2.2 1.9
v -1.9 2.2 -1.9
v -1.9 3.9 1.9
v -1.9 3.9 -1.9
v 2 0 2
v 2 0 -2
v 2 2.2 2
v 2 2.2 -2
v 2 4 2
v 2 4 -2
v -2 0 2
v -2 2.2 2
v -2 4 2
v 2.38419e-07 0 2
v 2.38419e-07 2.2 2
v 2.38419e-07 4 2
v 2 0 2
v 2 2.2 2
v 2 4 2
v -1.9 0.1 -1.9
v -1.9 2.2 -1.9
v -1.9 3.9 -1.9
v 2.38419e-07 0.1 -1.9
v 2.38419e-07 2.2 -1.9
v 2.38419e-07 3.9 -1.9
v 1.9 0.1 -1.9
v 1.9 2.2 -1.9
v 1.9 3.9 -1.9
v -1.9 0.1 1.9
v -1.9 2.2 1.9
v -1.9 3.9 1.9
v 2.38419e-07 0.1 1.9
v 2.38419e-07 2.2 1.9
v 2.38419e-07 3.9 1.9
v 1.9 0.1 1.9
v 1.9 2.2 1.9
v 1.9 3.9 1.9
v -2 0 -2
v -2 2.2 -2
v -2 4 -2
v 2.38419e-07 0 -2
v 2.38419e-07 2.2 -2
v 2.38419e-07 4 -2
v 2 0 -2
v 2 2.2 -2
v 2 4 -2
v -2 0 2
v 2.38419e-07 0 2
v 2 0 2
v -2 0 -2
v 2.38419e-07 0 -2
v 2 0 -2
v -1.9 3.9 1.9
v 2.38419e-07 3.9 1.9
v 1.9 3.9 1.9
v -1.9 3.9 -1.9
v 2.38419e-07 3.9 -1.9
v 1.9 3.9 -1.9
v -1.9 0.1 1.9
v 2.38419e-07 0.1 1.9
v 1.9 0.1 1.9
v -1.9 0.1 -1.9
v 2.38419e-07 0.1 -1.9
v 1.9 0.1 -1.9
v -2 4 2
v 2.38419e-07 4 2
v 2 4 2
v -2 4 -2
v 2.38419e-07 4 -2
v 2 4 -2

# faces
f 3/1/1 2/1/1 1/1/1
f 4/1/1 2/1/1 3/1/1
f 5/2/1 4/2/1 3/2/1
f 6/2/1 4/2/1 5/2/1
f 9/3/1 8/3/1 7/3/1
f 10/3/1 8/3/1 9/3/1
f 11/1/1 10/1/1 9/1/1
f 12/1/1 10/1/1 11/1/1
f 13/1/2 14/1/2 15/1/2
f 15/1/2 14/1/2 16/1/2
f 15/2/2 16/2/2 17/2/2
f 17/2/2 16/2/2 18/2/2
f 19/3/2 20/3/2 21/3/2
f 21/3/2 20/3/2 22/3/2
f 21/1/2 22/1/2 23/1/2
f 23/1/2 22/1/2 24/1/2
f 28/1/3 26/1/3 25/1/3
f 29/2/3 27/2/3 26/2/3
f 29/1/3 26/1/3 28/1/3
f 30/2/3 27/2/3 29/2/3
f 31/3/3 29/3/3 28/3/3
f 32/1/3 30/1/3 29/1/3
f 32/3/3 29/3/3 31/3/3
f 33/1/3 30/1/3 32/1/3
f 37/1/3 35/1/3 34/1/3
f 38/2/3 36/2/3 35/2/3
f 38/1/3 35/1/3 37/1/3
f 39/2/3 36/2/3 38/2/3
f 40/3/3 38/3/3 37/3/3
f 41/1/3 39/1/3 38/1/3
f 41/3/3 38/3/3 40/3/3
f 42/1/3 39/1/3 41/1/3
f 43/1/4 44/1/4 46/1/4
f 44/2/4 45/2/4 47/2/4
f 46/1/4 44/1/4 47/1/4
f 47/2/4 45/2/4 48/2/4
f 46/3/4 47/3/4 49/3/4
f 47/1/4 48/1/4 50/1/4
f 49/3/4 47/3/4 50/3/4
f 50/1/4 48/1/4 51/1/4
f 52/1/4 53/1/4 55/1/4
f 53/2/4 54/2/4 56/2/4
f 55/1/4 53/1/4 56/1/4
f 56/2/4 54/2/4 57/2/4
f 55/3/4 56/3/4 58/3/4
f 56/1/4 57/1/4 59/1/4
f 58/3/4 56/3/4 59/3/4
f 59/1/4 57/1/4 60/1/4
f 64/1/5 62/1/5 61/1/5
f 65/3/5 63/3/5 62/3/5
f 65/1/5 62/1/5 64/1/5
f 66/3/5 63/3/5 65/3/5
f 70/2/5 68/2/5 67/2/5
f 71/1/5 69/1/5 68/1/5
f 71/2/5 68/2/5 70/2/5
f 72/1/5 69/1/5 71/1/5
f 73/1/6 74/1/6 76/1/6
f 74/3/6 75/3/6 77/3/6
f 76/1/6 74/1/6 77/1/6
f 77/3/6 75/3/6 78/3/6
f 79/2/6 80/2/6 82/2/6
f 80/1/6 81/1/6 83/1/6
f 82/2/6 80/2/6 83/2/6
f 83/1/6 81/1/6 84/1/6
