# MagicaVoxel @ Ephtracy

# group
o lowarm-0-playelowarm

# material
mtllib lowarm-0-lowarm-0-playelowarm.mtl
usemtl palette

# normals
vn -1 0 0
vn 1 0 0
vn 0 0 1
vn 0 0 -1
vn 0 -1 0
vn 0 1 0

# texcoords
vt 0.291016 0.5
vt 0.384766 0.5
vt 0.416016 0.5

# verts
v -0.5 0 0.5
v -0.5 0 -0.5
v -0.5 1.4 0.5
v -0.5 1.4 -0.5
v -0.5 2.6 0.5
v -0.5 2.6 -0.5
v -0.5 4 0.5
v -0.5 4 -0.5
v 0.3 0.2 0.3
v 0.3 0.2 -0.3
v 0.3 2.6 0.3
v 0.3 2.6 -0.3
v 0.3 3.8 0.3
v 0.3 3.8 -0.3
v -0.3 0.2 0.3
v -0.3 0.2 -0.3
v -0.3 2.6 0.3
v -0.3 2.6 -0.3
v -0.3 3.8 0.3
v -0.3 3.8 -0.3
v 1 0 0.5
v 1 0 -0.5
v 1 1.4 0.5
v 1 1.4 -0.5
v 1 2.6 0.5
v 1 2.6 -0.5
v 1 4 0.5
v 1 4 -0.5
v -0.5 0 0.5
v -0.5 1.4 0.5
v -0.5 2.6 0.5
v -0.5 4 0.5
v 1 0 0.5
v 1 1.4 0.5
v 1 2.6 0.5
v 1 4 0.5
v -0.3 0.2 -0.3
v -0.3 2.6 -0.3
v -0.3 3.8 -0.3
v 0.3 0.2 -0.3
v 0.3 2.6 -0.3
v 0.3 3.8 -0.3
v -0.3 0.2 0.3
v -0.3 2.6 0.3
v -0.3 3.8 0.3
v 0.3 0.2 0.3
v 0.3 2.6 0.3
v 0.3 3.8 0.3
v -0.5 0 -0.5
v -0.5 1.4 -0.5
v -0.5 2.6 -0.5
v -0.5 4 -0.5
v 1 0 -0.5
v 1 1.4 -0.5
v 1 2.6 -0.5
v 1 4 -0.5
v -0.5 0 0.5
v 1 0 0.5
v -0.5 0 -0.5
v 1 0 -0.5
v -0.3 3.8 0.3
v 0.3 3.8 0.3
v -0.3 3.8 -0.3
v 0.3 3.8 -0.3
v -0.3 0.2 0.3
v 0.3 0.2 0.3
v -0.3 0.2 -0.3
v 0.3 0.2 -0.3
v -0.5 4 0.5
v 1 4 0.5
v -0.5 4 -0.5
v 1 4 -0.5

# faces
f 3/2/1 2/2/1 1/2/1
f 4/2/1 2/2/1 3/2/1
f 5/1/1 4/1/1 3/1/1
f 6/1/1 4/1/1 5/1/1
f 7/3/1 6/3/1 5/3/1
f 8/3/1 6/3/1 7/3/1
f 11/1/1 10/1/1 9/1/1
f 12/1/1 10/1/1 11/1/1
f 13/3/1 12/3/1 11/3/1
f 14/3/1 12/3/1 13/3/1
f 15/1/2 16/1/2 17/1/2
f 17/1/2 16/1/2 18/1/2
f 17/3/2 18/3/2 19/3/2
f 19/3/2 18/3/2 20/3/2
f 21/2/2 22/2/2 23/2/2
f 23/2/2 22/2/2 24/2/2
f 23/1/2 24/1/2 25/1/2
f 25/1/2 24/1/2 26/1/2
f 25/3/2 26/3/2 27/3/2
f 27/3/2 26/3/2 28/3/2
f 33/2/3 30/2/3 29/2/3
f 34/1/3 31/1/3 30/1/3
f 34/2/3 30/2/3 33/2/3
f 35/3/3 32/3/3 31/3/3
f 35/1/3 31/1/3 34/1/3
f 36/3/3 32/3/3 35/3/3
f 40/1/3 38/1/3 37/1/3
f 41/3/3 39/3/3 38/3/3
f 41/1/3 38/1/3 40/1/3
f 42/3/3 39/3/3 41/3/3
f 43/1/4 44/1/4 46/1/4
f 44/3/4 45/3/4 47/3/4
f 46/1/4 44/1/4 47/1/4
f 47/3/4 45/3/4 48/3/4
f 49/2/4 50/2/4 53/2/4
f 50/1/4 51/1/4 54/1/4
f 53/2/4 50/2/4 54/2/4
f 51/3/4 52/3/4 55/3/4
f 54/1/4 51/1/4 55/1/4
f 55/3/4 52/3/4 56/3/4
f 59/2/5 58/2/5 57/2/5
f 60/2/5 58/2/5 59/2/5
f 63/3/5 62/3/5 61/3/5
f 64/3/5 62/3/5 63/3/5
f 65/1/6 66/1/6 67/1/6
f 67/1/6 66/1/6 68/1/6
f 69/3/6 70/3/6 71/3/6
f 71/3/6 70/3/6 72/3/6
